<svg width="30" height="30" viewBox="0 0 30 30" fill="none" xmlns="http://www.w3.org/2000/svg">
<g id="carbon:building">
<path id="Vector" d="M26.25 1.875H15C14.5027 1.875 14.0258 2.07254 13.6742 2.42417C13.3225 2.77581 13.125 3.25272 13.125 3.75V13.125H3.75C3.25272 13.125 2.77581 13.3225 2.42417 13.6742C2.07254 14.0258 1.875 14.5027 1.875 15V28.125H28.125V3.75C28.125 3.25272 27.9275 2.77581 27.5758 2.42417C27.2242 2.07254 26.7473 1.875 26.25 1.875ZM8.4375 26.25V19.6875H12.1875V26.25H8.4375ZM26.25 26.25H14.0625V18.75C14.0625 18.5014 13.9637 18.2629 13.7879 18.0871C13.6121 17.9113 13.3736 17.8125 13.125 17.8125H7.5C7.25136 17.8125 7.0129 17.9113 6.83709 18.0871C6.66127 18.2629 6.5625 18.5014 6.5625 18.75V26.25H3.75V15H15V3.75H26.25V26.25Z" fill="black"/>
<path id="Vector_2" d="M16.875 7.5H18.75V9.375H16.875V7.5ZM22.5 7.5H24.375V9.375H22.5V7.5ZM16.875 13.125H18.75V15H16.875V13.125ZM22.5 13.125H24.375V15H22.5V13.125ZM16.875 18.75H18.75V20.625H16.875V18.75ZM22.5 18.75H24.375V20.625H22.5V18.75Z" fill="black"/>
</g>
</svg>
