<svg width="23" height="22" viewBox="0 0 23 22" fill="none" xmlns="http://www.w3.org/2000/svg">
<path id="Vector" fill-rule="evenodd" clip-rule="evenodd" d="M2.92845 0.943362C4.36376 -0.49553 6.72725 -0.239859 7.92904 1.37979L9.41742 3.38234C10.3963 4.69994 10.309 6.54077 9.14734 7.70497L8.86665 7.98799C8.83482 8.1068 8.83159 8.23155 8.85722 8.35187C8.93152 8.83705 9.33369 9.86449 11.0178 11.5531C12.702 13.2417 13.7281 13.646 14.2163 13.7222C14.3394 13.7471 14.4664 13.7434 14.5878 13.7114L15.069 13.2286C16.1022 12.1941 17.6873 12.0002 18.9657 12.7007L21.2184 13.9374C23.149 14.9934 23.6361 17.6381 22.0557 19.2232L20.3798 20.9023C19.8514 21.4315 19.1415 21.8727 18.2758 21.9548C16.1411 22.1557 11.1676 21.8989 5.93942 16.6582C1.0603 11.766 0.123867 7.49924 0.00474939 5.39679C-0.0542199 4.33368 0.443481 3.43467 1.07799 2.79965L2.92845 0.943362ZM6.51378 2.44885C5.91583 1.64378 4.80249 1.57957 4.17506 2.20864L2.32342 4.06374C1.93422 4.45378 1.74788 4.88426 1.77147 5.29571C1.86582 6.96649 2.62063 10.8158 7.18721 15.3941C11.9779 20.196 16.4017 20.3399 18.1119 20.1781C18.461 20.146 18.8077 19.9629 19.132 19.6383L20.8067 17.958C21.4884 17.2754 21.3386 16.0315 20.3739 15.5035L18.1213 14.268C17.4986 13.9279 16.7697 14.0397 16.3168 14.4939L15.7802 15.0326L15.1551 14.4C15.7802 15.0326 15.779 15.0338 15.7778 15.0338L15.7767 15.0362L15.7731 15.0398L15.7649 15.0469L15.7472 15.0635C15.6974 15.1101 15.6438 15.1523 15.5868 15.1896C15.4924 15.2526 15.3674 15.3228 15.2106 15.381C14.8921 15.5011 14.4699 15.5654 13.9486 15.4845C12.9261 15.3263 11.571 14.6235 9.77006 12.8184C7.97032 11.0132 7.2674 9.6552 7.10937 8.62538C7.02799 8.09977 7.09286 7.67405 7.21315 7.35297C7.27936 7.1723 7.37415 7.00363 7.49385 6.85352L7.53159 6.8119L7.5481 6.79406L7.55517 6.78693L7.55871 6.78336L7.56107 6.78098L7.90073 6.44088C8.40551 5.93311 8.47627 5.09237 8.00098 4.45141L6.51378 2.44885Z" fill="black"/>
</svg>
