<svg width="40" height="40" viewBox="0 0 40 40" fill="none" xmlns="http://www.w3.org/2000/svg">
<path d="M4.66634 34.8151H7.75384L28.933 13.6359L25.8455 10.5484L4.66634 31.7276V34.8151ZM0.333008 39.1484V29.9401L28.933 1.39427C29.3663 0.997049 29.8452 0.690104 30.3695 0.473438C30.8938 0.256771 31.4442 0.148438 32.0205 0.148438C32.5968 0.148438 33.1566 0.256771 33.6997 0.473438C34.2428 0.690104 34.7122 1.0151 35.108 1.44844L38.0872 4.48177C38.5205 4.87899 38.8368 5.34844 39.0362 5.8901C39.2355 6.43177 39.3344 6.97344 39.333 7.5151C39.333 8.09288 39.234 8.64394 39.0362 9.16827C38.8383 9.6926 38.5219 10.1707 38.0872 10.6026L9.54134 39.1484H0.333008ZM27.3622 12.1193L25.8455 10.5484L28.933 13.6359L27.3622 12.1193Z" fill="#345F72"/>
</svg>
