<svg width="26" height="26" viewBox="0 0 26 26" fill="none" xmlns="http://www.w3.org/2000/svg">
<path d="M7.50208 0.479492H17.9146C21.8813 0.479492 25.1042 3.70241 25.1042 7.66908V18.0816C25.1042 19.9884 24.3467 21.8171 22.9984 23.1654C21.6501 24.5137 19.8214 25.2712 17.9146 25.2712H7.50208C3.53542 25.2712 0.3125 22.0482 0.3125 18.0816V7.66908C0.3125 5.76228 1.06997 3.93358 2.41828 2.58527C3.76659 1.23696 5.59529 0.479492 7.50208 0.479492ZM7.25417 2.95866C6.07064 2.95866 4.93558 3.42881 4.0987 4.26569C3.26182 5.10258 2.79167 6.23763 2.79167 7.42116V18.3295C2.79167 20.7963 4.7874 22.792 7.25417 22.792H18.1625C19.346 22.792 20.4811 22.3218 21.318 21.485C22.1548 20.6481 22.625 19.513 22.625 18.3295V7.42116C22.625 4.95439 20.6293 2.95866 18.1625 2.95866H7.25417ZM19.2161 4.81803C19.6271 4.81803 20.0212 4.98128 20.3118 5.27187C20.6024 5.56245 20.7656 5.95657 20.7656 6.36751C20.7656 6.77846 20.6024 7.17258 20.3118 7.46316C20.0212 7.75374 19.6271 7.91699 19.2161 7.91699C18.8052 7.91699 18.4111 7.75374 18.1205 7.46316C17.8299 7.17258 17.6667 6.77846 17.6667 6.36751C17.6667 5.95657 17.8299 5.56245 18.1205 5.27187C18.4111 4.98128 18.8052 4.81803 19.2161 4.81803ZM12.7083 6.67741C14.3521 6.67741 15.9286 7.3304 17.0909 8.49274C18.2533 9.65507 18.9062 11.2315 18.9062 12.8753C18.9062 14.5191 18.2533 16.0956 17.0909 17.2579C15.9286 18.4202 14.3521 19.0732 12.7083 19.0732C11.0645 19.0732 9.48808 18.4202 8.32574 17.2579C7.16341 16.0956 6.51042 14.5191 6.51042 12.8753C6.51042 11.2315 7.16341 9.65507 8.32574 8.49274C9.48808 7.3304 11.0645 6.67741 12.7083 6.67741ZM12.7083 9.15658C11.7221 9.15658 10.7762 9.54837 10.0788 10.2458C9.38138 10.9432 8.98958 11.8891 8.98958 12.8753C8.98958 13.8616 9.38138 14.8075 10.0788 15.5049C10.7762 16.2023 11.7221 16.5941 12.7083 16.5941C13.6946 16.5941 14.6405 16.2023 15.3379 15.5049C16.0353 14.8075 16.4271 13.8616 16.4271 12.8753C16.4271 11.8891 16.0353 10.9432 15.3379 10.2458C14.6405 9.54837 13.6946 9.15658 12.7083 9.15658Z" fill="#A6E1FF"/>
</svg>
