<svg width="24" height="24" viewBox="0 0 24 24" fill="none" xmlns="http://www.w3.org/2000/svg">
<path d="M20.5521 0.71875C21.2096 0.71875 21.8402 0.979947 22.3051 1.44488C22.7701 1.90981 23.0312 2.5404 23.0312 3.19792V20.5521C23.0312 21.2096 22.7701 21.8402 22.3051 22.3051C21.8402 22.7701 21.2096 23.0312 20.5521 23.0312H3.19792C2.5404 23.0312 1.90981 22.7701 1.44488 22.3051C0.979947 21.8402 0.71875 21.2096 0.71875 20.5521V3.19792C0.71875 2.5404 0.979947 1.90981 1.44488 1.44488C1.90981 0.979947 2.5404 0.71875 3.19792 0.71875H20.5521ZM19.9323 19.9323V13.3625C19.9323 12.2907 19.5065 11.2629 18.7487 10.5051C17.9909 9.74721 16.963 9.32146 15.8913 9.32146C14.8376 9.32146 13.6104 9.96604 13.0154 10.9329V9.55698H9.55698V19.9323H13.0154V13.8211C13.0154 12.8667 13.784 12.0857 14.7384 12.0857C15.1987 12.0857 15.6401 12.2686 15.9656 12.594C16.291 12.9195 16.4739 13.3609 16.4739 13.8211V19.9323H19.9323ZM5.52833 7.61083C6.08065 7.61083 6.61034 7.39143 7.00088 7.00088C7.39143 6.61034 7.61083 6.08065 7.61083 5.52833C7.61083 4.37552 6.68115 3.43344 5.52833 3.43344C4.97273 3.43344 4.43989 3.65415 4.04702 4.04702C3.65415 4.43989 3.43344 4.97273 3.43344 5.52833C3.43344 6.68115 4.37552 7.61083 5.52833 7.61083ZM7.25136 19.9323V9.55698H3.81771V19.9323H7.25136Z" fill="#A6E1FF"/>
</svg>
