<svg width="26" height="26" viewBox="0 0 26 26" fill="none" xmlns="http://www.w3.org/2000/svg">
<path d="M21.5309 4.08675C20.3943 2.93902 19.0406 2.029 17.5488 1.4097C16.0569 0.790395 14.4567 0.474208 12.8414 0.479559C6.07332 0.479559 0.557175 5.99571 0.557175 12.7638C0.557175 14.9331 1.12738 17.0404 2.19342 18.8998L0.458008 25.2712L6.96582 23.5606C8.76322 24.5399 10.7837 25.0605 12.8414 25.0605C19.6096 25.0605 25.1257 19.5444 25.1257 12.7762C25.1257 9.49133 23.8489 6.40477 21.5309 4.08675ZM12.8414 22.978C11.0069 22.978 9.20947 22.4822 7.63519 21.5525L7.26332 21.3293L3.39582 22.3458L4.42467 18.5775L4.17676 18.1932C3.15726 16.5657 2.61603 14.6843 2.61488 12.7638C2.61488 7.13612 7.20134 2.54966 12.829 2.54966C15.5561 2.54966 18.1221 3.61571 20.0434 5.54946C20.9949 6.49633 21.749 7.62271 22.2618 8.86327C22.7746 10.1038 23.036 11.4339 23.0308 12.7762C23.0556 18.4039 18.4692 22.978 12.8414 22.978ZM18.4444 15.3422C18.1345 15.1934 16.6222 14.4497 16.3495 14.3381C16.0644 14.2389 15.866 14.1894 15.6553 14.4869C15.4446 14.7967 14.862 15.4909 14.6884 15.6892C14.5149 15.9 14.3289 15.9248 14.019 15.7636C13.7092 15.6149 12.7175 15.2802 11.5523 14.2389C10.635 13.4208 10.0276 12.4167 9.84165 12.1069C9.66811 11.797 9.81686 11.6358 9.97801 11.4747C10.1144 11.3383 10.2879 11.1152 10.4367 10.9416C10.5854 10.7681 10.6474 10.6317 10.7465 10.4334C10.8457 10.2227 10.7961 10.0491 10.7218 9.90039C10.6474 9.75164 10.0276 8.23935 9.77967 7.61956C9.53176 7.02456 9.27145 7.09893 9.08551 7.08654H8.49051C8.27978 7.08654 7.95749 7.16091 7.67238 7.47081C7.39967 7.7807 6.60634 8.52446 6.60634 10.0367C6.60634 11.549 7.70957 13.0117 7.85832 13.2101C8.00707 13.4208 10.0276 16.5198 13.1018 17.8461C13.8331 18.1684 14.4033 18.3544 14.8496 18.4907C15.5809 18.7262 16.2503 18.689 16.7833 18.6147C17.3783 18.5279 18.6055 17.8709 18.8534 17.152C19.1137 16.433 19.1137 15.8256 19.027 15.6892C18.9402 15.5529 18.7543 15.4909 18.4444 15.3422Z" fill="#A6E1FF"/>
</svg>
