<svg width="26" height="18" viewBox="0 0 26 18" fill="none" xmlns="http://www.w3.org/2000/svg">
<path d="M10.8132 12.5941L17.2466 8.87533L10.8132 5.15658V12.5941ZM25.1427 2.88814C25.3039 3.47074 25.4154 4.25168 25.4898 5.24335C25.5766 6.23501 25.6138 7.09032 25.6138 7.83407L25.6881 8.87533C25.6881 11.59 25.4898 13.5857 25.1427 14.8625C24.8328 15.9781 24.1139 16.6971 22.9983 17.007C22.4156 17.1681 21.3496 17.2797 19.7134 17.3541C18.1019 17.4408 16.6268 17.478 15.2633 17.478L13.2923 17.5524C8.09846 17.5524 4.86315 17.3541 3.58638 17.007C2.47076 16.6971 1.7518 15.9781 1.4419 14.8625C1.28076 14.2799 1.16919 13.499 1.09482 12.5073C1.00805 11.5156 0.970859 10.6603 0.970859 9.91658L0.896484 8.87533C0.896484 6.16064 1.09482 4.16491 1.4419 2.88814C1.7518 1.77251 2.47076 1.05355 3.58638 0.743659C4.16898 0.582513 5.23503 0.47095 6.87128 0.396575C8.48273 0.309804 9.95784 0.272617 11.3214 0.272617L13.2923 0.198242C18.4862 0.198242 21.7215 0.396576 22.9983 0.743659C24.1139 1.05355 24.8328 1.77251 25.1427 2.88814Z" fill="#A6E1FF"/>
</svg>
