<svg width="40" height="30" viewBox="0 0 40 30" fill="none" xmlns="http://www.w3.org/2000/svg">
<path d="M0.226562 29.9238V27.6146H11.5849C10.8783 24.8451 9.5086 22.4551 7.47584 20.4446C5.44309 18.4341 3.02666 17.0794 0.226562 16.3805C0.884951 16.2158 1.53322 16.0926 2.17138 16.011C2.80953 15.931 3.47804 15.8909 4.17689 15.8909C8.58172 15.8909 12.3173 17.1402 15.3835 19.6387C18.4498 22.1372 19.9821 25.5656 19.9806 29.9238H0.226562ZM22.3153 29.9238C22.3153 29.1356 22.253 28.3128 22.1285 27.4553C22.004 26.5978 21.7892 25.7496 21.4841 24.9106C22.7604 22.4136 24.6064 20.2861 27.022 18.528C29.4377 16.77 32.3584 15.8909 35.7842 15.8909C36.4815 15.8909 37.15 15.9317 37.7897 16.0133C38.4279 16.0949 39.0769 16.2165 39.7369 16.3782C36.9384 17.0771 34.5313 18.4318 32.5156 20.4423C30.5 22.4528 29.1202 24.8436 28.3762 27.6146H39.7369V29.9238H22.3153ZM20.5175 22.6083C20.1907 20.1067 20.3292 17.7744 20.9331 15.6115C21.537 13.4486 22.5067 11.5512 23.8422 9.9194C25.1776 8.28758 26.8244 6.9652 28.7824 5.95224C30.742 4.9362 32.8923 4.36045 35.2332 4.22498C32.7538 5.77982 30.8471 7.58944 29.5132 9.65385C28.1777 11.7213 27.2423 13.8342 26.7069 15.9925C25.443 16.653 24.2056 17.6213 22.9947 18.8975C21.7853 20.1752 20.958 21.4122 20.5175 22.6083ZM18.1898 19.4332C17.6622 18.762 17.0007 18.0947 16.2053 17.4312C15.41 16.7676 14.5944 16.2373 13.7586 15.8401C13.8473 15.5215 13.9189 15.1335 13.9733 14.6763C14.0278 14.2191 14.0551 13.7711 14.0551 13.3324C14.0551 10.8508 13.655 8.5085 12.855 6.30554C12.0565 4.10413 10.9359 2.08822 9.49303 0.257812C11.8511 1.20919 13.9516 2.70785 15.7944 4.75378C17.6373 6.79971 18.9292 9.33056 19.67 12.3463C19.1798 13.3824 18.8163 14.5378 18.5797 15.8124C18.3431 17.0871 18.2132 18.294 18.1898 19.4332Z" fill="#345F72"/>
</svg>
