<svg width="37" height="37" viewBox="0 0 37 37" fill="none" xmlns="http://www.w3.org/2000/svg">
<path d="M17.9107 37C16.7167 37 15.5139 36.8645 14.3025 36.5936C13.0911 36.3226 11.8515 35.9329 10.5836 35.4243C11.0178 31.0413 12.2842 26.9481 14.3829 23.1447C16.4815 19.3412 19.1771 15.9906 22.4698 13.0927C18.4897 15.1212 15.0436 17.8018 12.1315 21.1343C9.2195 24.4668 7.18383 28.2702 6.02452 32.5446C5.87978 32.4359 5.74446 32.3185 5.61854 32.1925L5.21039 31.7839C3.50978 30.0814 2.21659 28.1797 1.33082 26.0787C0.445054 23.9778 0.00144733 21.7863 0 19.5042C0 17.0411 0.488474 14.6866 1.46542 12.4407C2.44237 10.1949 3.79925 8.20263 5.53604 6.46392C8.46689 3.52985 12.2661 1.61944 16.9338 0.7327C21.6014 -0.154042 28.1506 -0.235907 36.5813 0.487106C37.2326 9.14443 37.1241 15.7465 36.2557 20.2932C35.3873 24.8399 33.5057 28.5615 30.6111 31.4579C28.8381 33.2328 26.8567 34.6006 24.6669 35.5612C22.4771 36.5219 20.225 37.0014 17.9107 37Z" fill="#345F72"/>
</svg>
