<svg width="33" height="36" viewBox="0 0 33 36" fill="none" xmlns="http://www.w3.org/2000/svg">
<path d="M32.4109 0.679688V4.34082C32.4109 21.9637 22.7339 29.9688 10.7984 29.9688H4.03192C3.72658 31.7826 3.58012 33.6204 3.59427 35.4605H-0.0078125C-0.0078125 32.9654 0.201109 30.701 0.615348 28.6288C0.201109 26.26 -0.00661181 23.0456 -0.0078125 18.9854C-0.0078125 8.87514 8.05545 0.679688 18.0026 0.679688C21.6047 0.679688 25.2068 2.51026 32.4109 0.679688ZM18.0026 4.34082C14.1813 4.34082 10.5165 5.88373 7.81437 8.63011C5.11228 11.3765 3.59427 15.1014 3.59427 18.9854C3.59427 19.648 3.60027 20.2863 3.61228 20.9001C5.87078 17.2793 9.1793 14.4181 13.5072 11.9047L15.2938 15.0826C10.1537 18.0701 6.74249 21.464 4.99188 26.3076H10.7984C21.6317 26.3076 28.5765 19.0348 28.8034 5.05108C26.3324 5.29455 24.0361 5.13895 21.203 4.70694C19.1318 4.39025 18.7248 4.34082 18.0026 4.34082Z" fill="#345F72"/>
</svg>
