<svg width="28" height="37" viewBox="0 0 28 37" fill="none" xmlns="http://www.w3.org/2000/svg">
<path d="M3.5 36.75C2.5375 36.75 1.71383 36.4076 1.029 35.7227C0.344166 35.0379 0.00116667 34.2137 0 33.25V15.75C0 14.7875 0.343 13.9638 1.029 13.279C1.715 12.5942 2.53867 12.2512 3.5 12.25H5.25V8.75C5.25 6.32917 6.10342 4.26592 7.81025 2.56025C9.51708 0.854585 11.5803 0.00116786 14 1.19454e-06C16.4197 -0.00116547 18.4835 0.852251 20.1915 2.56025C21.8995 4.26825 22.7523 6.3315 22.75 8.75V12.25H24.5C25.4625 12.25 26.2867 12.593 26.9727 13.279C27.6587 13.965 28.0012 14.7887 28 15.75V33.25C28 34.2125 27.6576 35.0367 26.9727 35.7227C26.2879 36.4087 25.4637 36.7512 24.5 36.75H3.5ZM3.5 33.25H24.5V15.75H3.5V33.25ZM14 28C14.9625 28 15.7867 27.6576 16.4727 26.9727C17.1587 26.2879 17.5012 25.4637 17.5 24.5C17.4988 23.5363 17.1564 22.7127 16.4727 22.029C15.7891 21.3453 14.9648 21.0023 14 21C13.0352 20.9977 12.2115 21.3407 11.529 22.029C10.8465 22.7173 10.5035 23.541 10.5 24.5C10.4965 25.459 10.8395 26.2833 11.529 26.9727C12.2185 27.6623 13.0422 28.0047 14 28ZM8.75 12.25H19.25V8.75C19.25 7.29167 18.7396 6.05208 17.7187 5.03125C16.6979 4.01042 15.4583 3.5 14 3.5C12.5417 3.5 11.3021 4.01042 10.2812 5.03125C9.26042 6.05208 8.75 7.29167 8.75 8.75V12.25Z" fill="#345F72"/>
</svg>
