<svg width="58" height="58" viewBox="0 0 58 58" fill="none" xmlns="http://www.w3.org/2000/svg">
<path d="M30.6065 49.3103C30.3436 49.7054 29.9346 49.9798 29.4694 50.0734C29.0042 50.1669 28.5209 50.0719 28.1257 49.8091C21.3841 45.3243 13.4647 42.9377 5.36764 42.9508C4.89303 42.9508 4.43786 42.7623 4.10226 42.4267C3.76666 42.0911 3.57813 41.6359 3.57812 41.1613C3.57813 40.6867 3.76666 40.2315 4.10226 39.8959C4.43786 39.5603 4.89303 39.3718 5.36764 39.3718C14.1701 39.3582 22.7792 41.9534 30.1076 46.8296C30.5027 47.0925 30.7772 47.5015 30.8707 47.9667C30.9642 48.4319 30.8692 48.9152 30.6065 49.3103ZM5.36764 32.2138C4.89303 32.2138 4.43786 32.4023 4.10226 32.7379C3.76666 33.0735 3.57813 33.5287 3.57812 34.0033C3.57813 34.4779 3.76666 34.9331 4.10226 35.2686C4.43786 35.6042 4.89303 35.7928 5.36764 35.7928C18.0169 35.7636 30.1674 40.7236 39.1827 49.5966C39.349 49.7677 39.5478 49.9037 39.7675 49.9968C39.9872 50.0898 40.2232 50.138 40.4618 50.1385C40.7004 50.139 40.9366 50.0918 41.1567 49.9997C41.3768 49.9076 41.5762 49.7724 41.7432 49.602C41.9103 49.4317 42.0416 49.2297 42.1294 49.0079C42.2172 48.7861 42.2598 48.549 42.2547 48.3104C42.2495 48.0719 42.1968 47.8369 42.0994 47.619C42.0021 47.4012 41.8622 47.2051 41.688 47.0421C32.0053 37.5108 18.9544 32.1825 5.36764 32.2138ZM51.8949 35.7928C48.2372 35.7904 44.5909 36.2023 41.0259 37.0208C42.2547 37.9529 43.4477 38.9341 44.6049 39.9646C47.0148 39.5698 49.4529 39.3716 51.8949 39.3718C52.3695 39.3718 52.8247 39.5603 53.1603 39.8959C53.4959 40.2315 53.6844 40.6867 53.6844 41.1613C53.6844 41.6359 53.4959 42.0911 53.1603 42.4267C52.8247 42.7623 52.3695 42.9508 51.8949 42.9508C50.5528 42.9508 49.2263 43.0157 47.9021 43.1432C49.1428 44.4361 50.3313 45.7887 51.4677 47.2009C51.6233 47.3832 51.7408 47.5949 51.813 47.8235C51.8853 48.052 51.9109 48.2928 51.8884 48.5314C51.8658 48.77 51.7955 49.0017 51.6817 49.2127C51.5679 49.4236 51.4128 49.6096 51.2258 49.7595C51.0387 49.9094 50.8235 50.0201 50.5928 50.0852C50.3621 50.1503 50.1206 50.1684 49.8828 50.1384C49.645 50.1084 49.4156 50.0309 49.2083 49.9106C49.001 49.7902 48.82 49.6295 48.676 49.4378C43.4892 42.9335 36.9004 37.6844 29.4014 34.0823C21.9025 30.4802 13.6869 28.618 5.36764 28.6347C4.89303 28.6347 4.43786 28.4462 4.10226 28.1106C3.76666 27.775 3.57813 27.3198 3.57812 26.8452C3.57813 26.3706 3.76666 25.9155 4.10226 25.5799C4.43786 25.2443 4.89303 25.0557 5.36764 25.0557C8.96885 25.0563 12.5626 25.3835 16.1047 26.0332V17.8977C16.1047 17.6199 16.1694 17.3459 16.2936 17.0974C16.4179 16.8489 16.5983 16.6327 16.8205 16.4661L31.1366 5.729C31.4464 5.49668 31.8231 5.37109 32.2103 5.37109C32.5975 5.37109 32.9743 5.49668 33.284 5.729L47.6001 16.4661C47.8223 16.6327 48.0027 16.8489 48.127 17.0974C48.2512 17.3459 48.3159 17.6199 48.3159 17.8977V25.1653C49.5037 25.096 50.6959 25.0557 51.8949 25.0557C52.3695 25.0557 52.8247 25.2443 53.1603 25.5799C53.4959 25.9155 53.6844 26.3706 53.6844 26.8452C53.6844 27.3198 53.4959 27.775 53.1603 28.1106C52.8247 28.4462 52.3695 28.6347 51.8949 28.6347C45.4687 28.6225 39.0899 29.7346 33.0469 31.9207C34.4546 32.6664 35.8311 33.4701 37.1762 34.3321C41.9554 32.9237 46.9125 32.2103 51.8949 32.2138C52.3695 32.2138 52.8247 32.4023 53.1603 32.7379C53.4959 33.0735 53.6844 33.5287 53.6844 34.0033C53.6844 34.4779 53.4959 34.9331 53.1603 35.2686C52.8247 35.6042 52.3695 35.7928 51.8949 35.7928ZM26.8418 19.6872H37.5788C38.0534 19.6872 38.5086 19.8757 38.8442 20.2113C39.1798 20.5469 39.3683 21.0021 39.3683 21.4767V26.3844C41.14 26.0027 42.9295 25.7044 44.7369 25.4897V18.7924L32.2103 9.39749L19.6837 18.7924V26.8027C21.5016 27.2501 23.2911 27.7855 25.0523 28.4088V21.4767C25.0523 21.0021 25.2408 20.5469 25.5764 20.2113C25.912 19.8757 26.3672 19.6872 26.8418 19.6872ZM28.6469 29.8136C30.9707 28.8159 33.3564 27.9693 35.7893 27.2792V23.2662H28.6313V29.8069L28.6469 29.8136Z" fill="#48655D"/>
</svg>
