<svg width="41" height="34" viewBox="0 0 41 34" fill="none" xmlns="http://www.w3.org/2000/svg">
<path d="M40.7 0.299996V7.39999C39.2333 7.6 37.8667 8.16666 36.6 9.1C35.4 9.96666 34.4333 11.1667 33.7 12.7C32.9667 14.1667 32.6 15.9667 32.6 18.1H40V33.6H23.3V19.9C23.3 15.2333 24.1333 11.5333 25.8 8.79999C27.5333 5.99999 29.7333 3.93333 32.4 2.6C35.0667 1.26666 37.8333 0.499998 40.7 0.299996ZM17.7 0.299996V7.39999C16.2333 7.6 14.8667 8.16666 13.6 9.1C12.4 9.96666 11.4333 11.1667 10.7 12.7C9.96667 14.1667 9.6 15.9667 9.6 18.1H17V33.6H0.3V19.9C0.3 15.2333 1.13333 11.5333 2.8 8.79999C4.53333 5.99999 6.73333 3.93333 9.4 2.6C12.0667 1.26666 14.8333 0.499998 17.7 0.299996Z" fill="#345F72"/>
</svg>
