<svg width="43" height="39" viewBox="0 0 43 39" fill="none" xmlns="http://www.w3.org/2000/svg">
<path d="M21.4163 31.4983C20.8657 31.4983 20.3861 31.2941 19.9775 30.8855C19.569 30.477 19.3647 29.9974 19.3647 29.4468C19.3647 28.8961 19.569 28.4165 19.9775 28.008C20.3861 27.5995 20.8657 27.3952 21.4163 27.3952C21.9669 27.3952 22.4465 27.5995 22.8551 28.008C23.2636 28.4165 23.4679 28.8961 23.4679 29.4468C23.4679 29.9974 23.2636 30.477 22.8551 30.8855C22.4465 31.2941 21.9669 31.4983 21.4163 31.4983ZM21.4163 22.0664C21.0362 22.0664 20.7191 21.9394 20.4651 21.6854C20.2111 21.4314 20.0841 21.1152 20.0841 20.7369V8.1317C20.0841 7.75336 20.212 7.43718 20.4678 7.18318C20.7236 6.92917 21.0406 6.80128 21.419 6.79951C21.7973 6.79773 22.1135 6.92562 22.3675 7.18318C22.6215 7.44073 22.7485 7.75691 22.7485 8.1317V20.7342C22.7485 21.1126 22.6206 21.4296 22.3648 21.6854C22.109 21.9412 21.792 22.0691 21.4136 22.0691M2.66172 18.9944C2.66172 21.6978 3.23367 24.1882 4.37758 26.4653C5.51971 28.7425 7.54465 31.1609 10.4524 33.7204V26.9875C10.4524 26.611 10.5803 26.2948 10.836 26.039C11.0918 25.7832 11.408 25.6553 11.7846 25.6553C12.1611 25.6553 12.4773 25.7832 12.7331 26.039C12.9889 26.2948 13.1159 26.611 13.1141 26.9875V36.2116C13.1141 36.8209 12.908 37.3316 12.496 37.7437C12.0839 38.1557 11.5732 38.3618 10.9639 38.3618H1.74251C1.36416 38.3618 1.0471 38.2339 0.791322 37.9781C0.535541 37.7223 0.40765 37.4062 0.40765 37.0296C0.40765 36.653 0.535541 36.3369 0.791322 36.0811C1.0471 35.8253 1.36328 35.6974 1.73984 35.6974H8.64059C5.45577 32.9247 3.21946 30.1955 1.93168 27.5098C0.643892 24.8241 0 21.9794 0 18.9757C0 15.052 1.01957 11.4799 3.05871 8.25959C5.09785 5.03924 7.76845 2.59156 11.0705 0.916547C11.4187 0.731817 11.7748 0.701621 12.1389 0.825959C12.5031 0.950297 12.7446 1.19542 12.8636 1.56133C12.9826 1.92724 12.9649 2.28338 12.8104 2.62975C12.6505 2.97256 12.4018 3.23545 12.0643 3.4184C9.23653 4.8625 6.96292 6.97891 5.24351 9.76763C3.52231 12.5564 2.66172 15.6319 2.66172 18.9944ZM40.067 19.3674C40.067 16.6639 39.4959 14.1736 38.3538 11.8965C37.2099 9.61931 35.185 7.20183 32.279 4.64402V11.3743C32.279 11.7526 32.1511 12.0688 31.8953 12.3228C31.6395 12.5768 31.3225 12.7047 30.9441 12.7064C30.5658 12.7082 30.2496 12.5803 29.9956 12.3228C29.7416 12.0652 29.6146 11.749 29.6146 11.3743V2.15282C29.6146 1.54179 29.8207 1.03023 30.2328 0.618137C30.6448 0.206045 31.1555 0 31.7648 0H40.9889C41.3672 0 41.6834 0.127891 41.9374 0.383671C42.1914 0.639452 42.3193 0.956513 42.3211 1.33486C42.3228 1.7132 42.1949 2.02937 41.9374 2.28338C41.6798 2.53738 41.3637 2.66438 40.9889 2.66438H34.0881C37.2747 5.43712 39.5119 8.16633 40.7997 10.852C42.0875 13.5377 42.7314 16.3824 42.7314 19.3861C42.7314 23.3098 41.71 26.8819 39.6673 30.1022C37.6229 33.3243 34.9532 35.7773 31.6582 37.4612C31.3101 37.646 30.9548 37.6744 30.5924 37.5465C30.2283 37.4168 29.9859 37.1681 29.8651 36.8005C29.7461 36.431 29.7647 36.0749 29.921 35.732C30.0773 35.3892 30.326 35.1263 30.667 34.9434C33.4948 33.4993 35.7685 31.3829 37.4879 28.5942C39.2073 25.8054 40.067 22.7299 40.067 19.3674Z" fill="#48655D"/>
</svg>
