<svg width="8" height="8" viewBox="0 0 8 8" fill="none" xmlns="http://www.w3.org/2000/svg">
<path d="M4.66238 1.15073C4.58311 1.04898 4.53995 0.9144 4.542 0.775342C4.54406 0.636283 4.59116 0.503606 4.67338 0.405261C4.7556 0.306917 4.86653 0.250584 4.9828 0.24813C5.09906 0.245677 5.21158 0.297294 5.29665 0.392108L7.69013 3.25485C7.77417 3.35549 7.82138 3.49192 7.82138 3.63416C7.82138 3.7764 7.77417 3.91283 7.69013 4.01347L5.29665 6.87621C5.25557 6.92895 5.20602 6.97125 5.15097 7.00058C5.09592 7.02992 5.0365 7.04569 4.97624 7.04697C4.91598 7.04824 4.85613 7.03498 4.80025 7.00798C4.74437 6.98099 4.69361 6.94081 4.65099 6.88984C4.60838 6.83887 4.57478 6.77815 4.55221 6.71131C4.52964 6.64448 4.51855 6.57289 4.51962 6.50082C4.52068 6.42875 4.53387 6.35767 4.5584 6.29183C4.58292 6.22598 4.61829 6.16673 4.66238 6.11759L6.28995 4.17092L0.491746 4.17092C0.372723 4.17092 0.258575 4.11437 0.174412 4.01371C0.0902504 3.91305 0.0429688 3.77652 0.0429688 3.63416C0.0429688 3.4918 0.0902504 3.35527 0.174412 3.25461C0.258575 3.15395 0.372723 3.0974 0.491746 3.0974L6.28995 3.0974L4.66238 1.15073Z" fill="white"/>
</svg>
