<svg width="44" height="44" viewBox="0 0 44 44" fill="none" xmlns="http://www.w3.org/2000/svg">
<path d="M31.6929 16.6508L31.7035 16.6402L29.8653 14.2867C29.8312 14.2427 29.7887 14.2058 29.7403 14.1783C29.6919 14.1507 29.6385 14.1329 29.5832 14.126C29.528 14.1191 29.4719 14.1232 29.4182 14.138C29.3645 14.1528 29.3142 14.1781 29.2703 14.2123L26.5927 16.3002L22.8474 11.5135C22.8132 11.4695 22.7707 11.4326 22.7223 11.4051C22.6739 11.3775 22.6206 11.3597 22.5653 11.3528C22.51 11.3459 22.4539 11.35 22.4002 11.3648C22.3465 11.3796 22.2963 11.4049 22.2523 11.4391L20.2389 13.017C20.1948 13.0511 20.158 13.0936 20.1304 13.142C20.1029 13.1904 20.0851 13.2438 20.0782 13.299C20.0713 13.3543 20.0754 13.4104 20.0902 13.4641C20.105 13.5178 20.1302 13.5681 20.1645 13.612L23.9099 18.404L23.8993 18.4093L25.7374 20.7628C25.8809 20.9487 26.1465 20.9806 26.3324 20.8371L29.01 18.7493L32.4154 23.1056C32.5588 23.2916 32.8244 23.3234 33.0104 23.18L35.0239 21.6075C35.2098 21.464 35.2417 21.1984 35.0982 21.0125L31.6929 16.6508ZM27.1878 0.675781C18.2679 0.675781 11.0374 7.90624 11.0374 16.8261C11.0374 20.5609 12.3071 23.9981 14.4322 26.7341L0.959403 40.2069C0.880308 40.2868 0.835937 40.3947 0.835938 40.5071C0.835938 40.6195 0.880308 40.7274 0.959403 40.8072L3.20664 43.0545C3.37133 43.2192 3.64227 43.2192 3.80696 43.0545L17.2797 29.5817C20.0157 31.7067 23.453 32.9765 27.1878 32.9765C36.1076 32.9765 43.3381 25.746 43.3381 16.8261C43.3381 7.90624 36.1076 0.675781 27.1878 0.675781ZM35.7517 25.39C33.4673 27.6798 30.4231 28.9389 27.1878 28.9389C23.9524 28.9389 20.9083 27.6798 18.6238 25.39C16.3341 23.1056 15.075 20.0615 15.075 16.8261C15.075 13.5907 16.3341 10.5466 18.6238 8.26219C20.9083 5.97245 23.9524 4.71337 27.1878 4.71337C30.4231 4.71337 33.4673 5.97245 35.7517 8.26219C38.0414 10.5466 39.3005 13.5907 39.3005 16.8261C39.3005 20.0615 38.0414 23.1056 35.7517 25.39Z" fill="#48655D"/>
</svg>
