<svg width="38" height="30" viewBox="0 0 38 30" fill="none" xmlns="http://www.w3.org/2000/svg">
<path d="M16.0538 21.5625C16.8137 22.3125 17.7953 22.68 18.9985 22.665C20.2018 22.65 21.0884 22.22 21.6583 21.375L32.2975 5.625L16.3387 16.125C15.4838 16.6875 15.0329 17.5469 14.986 18.7031C14.9392 19.8594 15.2951 20.8125 16.0538 21.5625ZM18.9985 0C20.8667 0 22.664 0.2575 24.3903 0.7725C26.1166 1.2875 27.7391 2.06125 29.2577 3.09375L25.648 5.34375C24.6031 4.8125 23.5189 4.41437 22.3955 4.14937C21.272 3.88437 20.1397 3.75125 18.9985 3.75C14.7872 3.75 11.2009 5.21125 8.23966 8.13375C5.27843 11.0563 3.79844 14.595 3.79971 18.75C3.79971 20.0625 3.98209 21.3594 4.34686 22.6406C4.71164 23.9219 5.22586 25.125 5.88954 26.25H32.1075C32.8358 25.0625 33.3665 23.8281 33.6996 22.5469C34.0327 21.2656 34.1986 19.9375 34.1974 18.5625C34.1974 17.4375 34.0625 16.3438 33.7927 15.2812C33.5229 14.2187 33.1195 13.1875 32.5825 12.1875L34.8623 8.625C35.8122 10.0938 36.5646 11.6563 37.1193 13.3125C37.6741 14.9688 37.9667 16.6875 37.9971 18.4688C38.0275 20.25 37.8216 21.9531 37.3796 23.5781C36.9376 25.2031 36.2885 26.75 35.4323 28.2187C35.084 28.7812 34.609 29.2188 34.0074 29.5312C33.4058 29.8438 32.7725 30 32.1075 30H5.88954C5.2246 30 4.59131 29.8438 3.98969 29.5312C3.38807 29.2188 2.91311 28.7812 2.5648 28.2187C1.74153 26.8125 1.10825 25.3206 0.664948 23.7431C0.221649 22.1656 0 20.5012 0 18.75C0 16.1562 0.499028 13.7269 1.49708 11.4619C2.49514 9.19687 3.8567 7.2125 5.58177 5.50875C7.30684 3.805 9.32511 2.46125 11.6366 1.4775C13.9481 0.49375 16.4021 0.00125 18.9985 0Z" fill="#345F72"/>
</svg>
