<svg width="23" height="24" viewBox="0 0 23 24" fill="none" xmlns="http://www.w3.org/2000/svg">
<path fill-rule="evenodd" clip-rule="evenodd" d="M0.200195 12.1391C0.200195 9.12886 1.396 6.24194 3.52453 4.1134C5.65307 1.98486 8.53999 0.789063 11.5502 0.789062C14.5604 0.789063 17.4473 1.98486 19.5759 4.1134C21.7044 6.24194 22.9002 9.12886 22.9002 12.1391C22.9002 15.1493 21.7044 18.0362 19.5759 20.1647C17.4473 22.2933 14.5604 23.4891 11.5502 23.4891C8.53999 23.4891 5.65307 22.2933 3.52453 20.1647C1.396 18.0362 0.200195 15.1493 0.200195 12.1391ZM10.9025 16.9969L17.4371 8.82789L16.2567 7.88357L10.6846 14.8464L6.7378 11.5579L5.76926 12.7202L10.9025 16.9969Z" fill="#F7BE68"/>
</svg>
