<svg width="44" height="44" viewBox="0 0 44 44" fill="none" xmlns="http://www.w3.org/2000/svg">
<path d="M39.6 39.4437C36.542 39.4437 33.484 38.445 30.8 36.6176C25.432 40.2511 18.568 40.2511 13.2 36.6176C10.516 38.445 7.458 39.4437 4.4 39.4437H0V43.6934H4.4C7.414 43.6934 10.428 42.9497 13.2 41.5685C18.7 44.3308 25.3 44.3308 30.8 41.5685C33.572 42.9497 36.564 43.6934 39.6 43.6934H44V39.4437H39.6ZM41.316 37.3188H39.6C37.004 37.3188 34.408 36.4689 32.076 34.8752L30.8 34.0253L29.524 34.8752C27.258 36.4051 24.662 37.2126 22 37.2126C19.294 37.2126 16.698 36.4051 14.432 34.8752L13.2 34.0253L11.946 34.8752C9.592 36.4689 6.996 37.3188 4.4 37.3188H2.684C3.85 34.2165 7.876 28.8194 22 28.8194C26.4 28.8194 28.6 29.3294 28.6 29.3294C30.096 26.4183 32.626 19.8313 30.8 11.4382L33.132 12.9468C33.858 15.9853 35.2 21.9137 32.56 30.2006C38.346 32.0067 40.524 35.194 41.316 37.3188ZM44 13.0743C42.262 10.7582 39.6 9.07958 36.476 8.6971C36.74 8.99458 36.982 9.33456 37.224 9.69578C38.4776 11.6293 39.0578 13.8995 38.8796 16.1743C38.7015 18.4491 37.7744 20.6092 36.234 22.3386C37.532 19.2576 37.4 15.6241 35.376 12.5856C35.2 12.4156 35.112 12.2456 34.98 12.0544C34.1 10.822 32.912 9.82327 31.636 9.10082C27.17 10.482 23.936 14.5192 23.936 19.2576C23.936 20.3838 24.112 21.4462 24.42 22.4449C23.1 20.6812 22.352 18.5564 22.352 16.2191C22.352 12.6918 24.112 9.58954 26.84 7.63468C24.552 7.46469 22.198 7.95341 20.108 9.22832C19.14 9.80202 18.304 10.5032 17.6 11.3107C18.458 9.31331 19.91 7.57093 22 6.29602C24.209 4.92371 26.8645 4.38655 29.458 4.78738C28.8024 3.90917 28.0166 3.1288 27.126 2.4713C26.224 1.81259 25.234 1.30263 24.2 0.941406C26.4 1.00515 28.688 1.70635 30.602 3.0875C31.57 3.7887 32.34 4.63864 33 5.55233C33.132 5.55233 33.264 5.53108 33.418 5.53108C35.7852 5.52987 38.0905 6.26188 39.9951 7.61958C41.8998 8.97729 43.3035 10.8891 44 13.0743Z" fill="#345F72"/>
</svg>
