<svg width="43" height="40" viewBox="0 0 43 40" fill="none" xmlns="http://www.w3.org/2000/svg">
<path d="M42.7432 39.5575C42.647 39.6784 42.528 39.779 42.393 39.8537C42.258 39.9284 42.1097 39.9757 41.9565 39.9928C41.8033 40.0099 41.6482 39.9965 41.5001 39.9535C41.3521 39.9104 41.2139 39.8385 41.0936 39.7418C41.0193 39.681 33.4223 33.7243 21.5001 33.7243C9.54071 33.7243 1.98083 39.681 1.90656 39.7418C1.66345 39.9368 1.35308 40.0269 1.04373 39.9924C0.734374 39.9578 0.451377 39.8014 0.256993 39.5575C0.0626093 39.3136 -0.0272381 39.0022 0.00721605 38.6919C0.0416702 38.3816 0.197604 38.0976 0.440713 37.9026C0.759291 37.6477 8.06313 31.893 19.9052 31.4048C19.219 28.8752 18.9653 26.2472 19.1547 23.6325C19.4987 19.3051 21.3809 13.4857 28.1062 9.23485C26.7383 8.81347 25.3134 8.6084 23.8826 8.62703C20.0245 8.75251 17.5013 11.0897 16.3833 15.5739C16.3208 15.8293 16.1748 16.0564 15.9686 16.2188C15.7624 16.3812 15.508 16.4696 15.2458 16.4699C15.1496 16.47 15.0538 16.4581 14.9604 16.4346C14.8111 16.3971 14.6705 16.3303 14.5469 16.2382C14.4232 16.1462 14.3188 16.0306 14.2397 15.898C14.1605 15.7655 14.1082 15.6186 14.0857 15.4657C14.0631 15.3129 14.0708 15.1571 14.1083 15.0072C15.8575 7.99959 20.347 6.39376 23.8083 6.282C25.5054 6.25349 27.1963 6.49233 28.8196 6.98982C28.0573 5.48986 26.7771 3.66443 24.8227 2.82524C22.7607 1.94095 20.2571 2.31153 17.3781 3.92128C17.2434 4.00461 17.0932 4.05971 16.9366 4.08325C16.7801 4.1068 16.6204 4.0983 16.4672 4.05827C16.314 4.01824 16.1705 3.94751 16.0453 3.85035C15.9201 3.75318 15.8158 3.63159 15.7386 3.49289C15.6615 3.3542 15.6132 3.20128 15.5966 3.04335C15.58 2.88542 15.5954 2.72575 15.6419 2.57396C15.6885 2.42217 15.7652 2.2814 15.8674 2.16014C15.9696 2.03888 16.0952 1.93964 16.2367 1.8684C19.788 -0.119776 22.9913 -0.523685 25.7569 0.668437C28.3798 1.79782 30.0118 4.12716 30.9499 5.99377C31.8588 4.3997 33.3227 2.56054 35.4648 1.86056C37.6538 1.14489 40.0323 1.74292 42.5321 3.63894C42.7801 3.82718 42.9435 4.10657 42.9862 4.41563C43.0289 4.72468 42.9474 5.0381 42.7598 5.28693C42.5722 5.53576 42.2937 5.69961 41.9856 5.74245C41.6775 5.78529 41.3651 5.7036 41.1171 5.51535C39.2681 4.11343 37.6127 3.63502 36.1977 4.09579C34.38 4.68401 33.178 6.65846 32.5428 8.01724C34.0874 8.27384 35.5755 8.79868 36.9404 9.56818C39.7059 11.1544 42.9992 14.5229 42.9992 21.5698C42.9992 21.8818 42.8757 22.181 42.6558 22.4017C42.4358 22.6223 42.1376 22.7462 41.8265 22.7462C41.5155 22.7462 41.2173 22.6223 40.9973 22.4017C40.7774 22.181 40.6539 21.8818 40.6539 21.5698C40.6539 14.1347 36.5104 11.5701 33.6178 10.6701C34.9275 12.8086 35.4386 15.3438 35.0602 17.8248C34.8254 19.4011 34.2583 20.909 33.3969 22.2482C33.2178 22.5035 32.945 22.677 32.6384 22.7305C32.3318 22.784 32.0165 22.7132 31.762 22.5335C31.5075 22.3538 31.3346 22.0801 31.2812 21.7725C31.2279 21.4649 31.2985 21.1487 31.4776 20.8933C31.6301 20.6737 34.9585 15.7229 30.6196 10.4897C25.0553 13.5288 21.9887 17.9777 21.5001 23.7344C21.3066 26.3136 21.5916 28.9063 22.3405 31.3813C34.6185 31.646 42.2311 37.6399 42.5556 37.9007C42.6766 37.9969 42.7775 38.1161 42.8525 38.2516C42.9275 38.3871 42.9751 38.536 42.9925 38.69C43.0099 38.8439 42.9969 38.9998 42.9541 39.1487C42.9113 39.2976 42.8396 39.4365 42.7432 39.5575ZM1.56453 22.3521C1.56453 21.3438 1.86256 20.3582 2.42094 19.5199C2.97931 18.6815 3.77295 18.0281 4.7015 17.6423C5.63004 17.2564 6.65178 17.1555 7.63752 17.3522C8.62325 17.5489 9.52871 18.0344 10.2394 18.7474C10.9501 19.4603 11.434 20.3687 11.6301 21.3576C11.8262 22.3465 11.7256 23.3715 11.3409 24.303C10.9563 25.2345 10.305 26.0307 9.46934 26.5909C8.63367 27.151 7.65119 27.45 6.64614 27.45C5.29842 27.45 4.00589 26.9129 3.0529 25.9569C2.09991 25.0008 1.56453 23.7042 1.56453 22.3521ZM3.90989 22.3521C3.90989 22.895 4.07037 23.4257 4.37103 23.8772C4.6717 24.3286 5.09904 24.6804 5.59903 24.8882C6.09901 25.0959 6.64918 25.1503 7.17996 25.0444C7.71074 24.9385 8.19829 24.677 8.58097 24.2931C8.96364 23.9092 9.22424 23.4201 9.32982 22.8876C9.4354 22.3552 9.38121 21.8032 9.17411 21.3016C8.96701 20.8001 8.6163 20.3713 8.16633 20.0697C7.71635 19.7681 7.18732 19.6071 6.64614 19.6071C5.92044 19.6071 5.22447 19.8963 4.71132 20.4111C4.19817 20.9259 3.90989 21.6241 3.90989 22.3521Z" fill="#345F72"/>
</svg>
