<svg width="38" height="42" viewBox="0 0 38 42" fill="none" xmlns="http://www.w3.org/2000/svg">
<path d="M19.8459 40.9148L19.8253 40.9185L19.6922 40.9848L19.6547 40.9924L19.6285 40.9848L19.4954 40.9185C19.4755 40.9122 19.4605 40.9154 19.4505 40.928L19.443 40.9469L19.4111 41.7569L19.4205 41.7948L19.4392 41.8194L19.6341 41.9594L19.6622 41.967L19.6847 41.9594L19.8797 41.8194L19.9021 41.7891L19.9096 41.7569L19.8778 40.9488C19.8728 40.9286 19.8622 40.9173 19.8459 40.9148ZM20.3426 40.7009L20.3182 40.7047L19.9715 40.8807L19.9527 40.8996L19.9471 40.9204L19.9809 41.7342L19.9902 41.7569L20.0052 41.7702L20.3819 41.9462C20.4057 41.9525 20.4238 41.9474 20.4363 41.931L20.4438 41.9045L20.3801 40.7425C20.3738 40.7198 20.3613 40.706 20.3426 40.7009ZM19.0025 40.7047C18.9943 40.6996 18.9844 40.698 18.975 40.7001C18.9655 40.7022 18.9573 40.7079 18.9519 40.7161L18.9407 40.7425L18.877 41.9045C18.8782 41.9272 18.8888 41.9424 18.9088 41.95L18.9369 41.9462L19.3136 41.7702L19.3324 41.755L19.3399 41.7342L19.3717 40.9204L19.3661 40.8977L19.3474 40.8788L19.0025 40.7047Z" fill="#345F72"/>
<path d="M18.7343 0.679688C29.0855 0.679688 37.4763 9.15234 37.4763 19.6045C37.4763 30.0567 29.0855 38.5294 18.7343 38.5294C8.38302 38.5294 -0.0078125 30.0567 -0.0078125 19.6045C-0.0078125 9.15234 8.38302 0.679688 18.7343 0.679688ZM18.7343 4.46466C14.7577 4.46466 10.944 6.05975 8.13215 8.89902C5.32029 11.7383 3.7406 15.5892 3.7406 19.6045C3.7406 23.6199 5.32029 27.4708 8.13215 30.31C10.944 33.1493 14.7577 34.7444 18.7343 34.7444C22.7108 34.7444 26.5245 33.1493 29.3364 30.31C32.1482 27.4708 33.7279 23.6199 33.7279 19.6045C33.7279 15.5892 32.1482 11.7383 29.3364 8.89902C26.5245 6.05975 22.7108 4.46466 18.7343 4.46466ZM18.7343 8.24963C19.1933 8.24969 19.6364 8.41987 19.9794 8.72788C20.3225 9.0359 20.5416 9.46034 20.5954 9.92069L20.6085 10.1421V18.821L25.682 23.944C26.0181 24.2846 26.2132 24.7416 26.2278 25.2222C26.2423 25.7027 26.0751 26.1709 25.7602 26.5316C25.4453 26.8922 25.0062 27.1183 24.5322 27.1639C24.0581 27.2095 23.5847 27.0712 23.208 26.777L23.0318 26.62L17.4092 20.9425C17.1179 20.6481 16.9308 20.265 16.8769 19.8524L16.8601 19.6045V10.1421C16.8601 9.64019 17.0575 9.15883 17.409 8.80392C17.7605 8.44901 18.2372 8.24963 18.7343 8.24963Z" fill="#345F72"/>
</svg>
