<svg width="40" height="40" viewBox="0 0 40 40" fill="none" xmlns="http://www.w3.org/2000/svg">
<path d="M20 0C31.046 0 40 8.954 40 20C40 31.046 31.046 40 20 40C8.954 40 0 31.046 0 20C0 8.954 8.954 0 20 0ZM20 8C19.4696 8 18.9609 8.21071 18.5858 8.58579C18.2107 8.96086 18 9.46957 18 10V20C18.0001 20.5304 18.2109 21.039 18.586 21.414L24.586 27.414C24.9632 27.7783 25.4684 27.9799 25.9928 27.9753C26.5172 27.9708 27.0188 27.7605 27.3896 27.3896C27.7605 27.0188 27.9708 26.5172 27.9753 25.9928C27.9799 25.4684 27.7783 24.9632 27.414 24.586L22 19.172V10C22 9.46957 21.7893 8.96086 21.4142 8.58579C21.0391 8.21071 20.5304 8 20 8Z" fill="#345F72"/>
</svg>
