<svg width="47" height="25" viewBox="0 0 47 25" fill="none" xmlns="http://www.w3.org/2000/svg">
<path d="M-0.0078125 24.1092V21.5492C1.2627 21.3914 2.25197 20.9721 2.95999 20.2914C3.66965 19.6124 5.01048 19.2729 6.98248 19.2729C9.04931 19.2729 10.5079 19.6839 11.3582 20.506C12.2084 21.3281 13.4634 21.7391 15.1231 21.7391C16.8024 21.7391 18.0672 21.3281 18.9175 20.506C19.7678 19.6839 21.2263 19.2729 23.2932 19.2729C25.3404 19.2729 26.7989 19.6839 27.6688 20.506C28.5387 21.3281 29.8035 21.7391 31.4632 21.7391C33.1425 21.7391 34.4024 21.3281 35.2429 20.506C36.085 19.6839 37.5386 19.2729 39.6038 19.2729C41.5758 19.2729 42.9167 19.6132 43.6263 20.2939C44.3343 20.9729 45.3236 21.3922 46.5941 21.5517V24.1117C45.1127 23.921 43.937 23.4779 43.0671 22.7824C42.1972 22.0869 41.0428 21.7391 39.6038 21.7391C37.9752 21.7391 36.7276 22.1502 35.861 22.9723C34.9943 23.7944 33.5284 24.2054 31.4632 24.2054C29.416 24.2054 27.9574 23.7944 27.0875 22.9723C26.2176 22.1502 24.9528 21.74 23.2932 21.7416C21.6138 21.7416 20.3491 22.1527 19.4988 22.9747C18.6485 23.7968 17.1899 24.2079 15.1231 24.2079C13.0563 24.2079 11.5953 23.7968 10.7401 22.9747C9.88488 22.1527 8.63235 21.7416 6.98248 21.7416C5.49121 21.7416 4.34415 22.0894 3.54129 22.7848C2.73843 23.482 1.5554 23.9251 -0.0078125 24.1142M-0.0078125 14.8163V12.2563C1.2627 12.0985 2.25197 11.6792 2.95999 10.9985C3.66965 10.3195 5.01048 9.97998 6.98248 9.97998C9.02969 9.97998 10.4833 10.391 11.3434 11.2131C12.2035 12.0352 13.4634 12.4462 15.1231 12.4462C16.8024 12.4462 18.0672 12.0352 18.9175 11.2131C19.7678 10.391 21.2263 9.97916 23.2932 9.97751C25.3404 9.97751 26.7957 10.3886 27.659 11.2106C28.5224 12.0327 29.7814 12.4438 31.4362 12.4438C33.1139 12.4438 34.3779 12.0327 35.2281 11.2106C36.0784 10.3886 37.537 9.97751 39.6038 9.97751C41.5562 9.97751 42.897 10.3179 43.6263 10.9985C44.354 11.6776 45.3432 12.096 46.5941 12.2539V14.8139C45.0947 14.6248 43.9149 14.1825 43.0548 13.487C42.1947 12.7915 41.0444 12.4438 39.6038 12.4438C37.9752 12.4438 36.7276 12.8548 35.861 13.6769C34.9943 14.499 33.5284 14.91 31.4632 14.91C29.416 14.91 27.9574 14.499 27.0875 13.6769C26.2193 12.8548 24.9545 12.4438 23.2932 12.4438C21.6138 12.4438 20.354 12.8548 19.5135 13.6769C18.6714 14.499 17.2177 14.91 15.1525 14.91C13.0873 14.91 11.6157 14.499 10.7376 13.6769C9.85953 12.8548 8.60782 12.4438 6.98248 12.4438C5.51084 12.4438 4.36378 12.7915 3.54129 13.487C2.71881 14.1825 1.53577 14.6256 -0.0078125 14.8163ZM-0.0078125 5.5185V2.95852C1.2627 2.80068 2.25197 2.38141 2.95999 1.70072C3.66965 1.02168 5.01048 0.682154 6.98248 0.682154C9.02969 0.682154 10.4833 1.0932 11.3434 1.91529C12.2035 2.73738 13.4634 3.14842 15.1231 3.14842C16.8024 3.14842 18.0672 2.73738 18.9175 1.91529C19.7678 1.0932 21.2263 0.681332 23.2932 0.679688C25.3404 0.679688 26.7957 1.09073 27.659 1.91282C28.5224 2.73491 29.7814 3.14595 31.4362 3.14595C33.1139 3.14595 34.3779 2.73491 35.2281 1.91282C36.0784 1.09073 37.537 0.679688 39.6038 0.679688C41.5562 0.679688 42.897 1.01921 43.6263 1.69825C44.354 2.37894 45.3432 2.79821 46.5941 2.95605V5.51604C45.0947 5.32696 43.9149 4.88467 43.0548 4.18918C42.1947 3.4937 41.0444 3.14595 39.6038 3.14595C37.9752 3.14595 36.7276 3.557 35.861 4.37909C34.9943 5.20118 33.5284 5.61222 31.4632 5.61222C29.416 5.61222 27.9574 5.20118 27.0875 4.37909C26.2193 3.557 24.9545 3.14595 23.2932 3.14595C21.6138 3.14595 20.354 3.557 19.5135 4.37909C18.6714 5.20118 17.2177 5.61222 15.1525 5.61222C13.0873 5.61222 11.6157 5.20118 10.7376 4.37909C9.85953 3.557 8.60782 3.14595 6.98248 3.14595C5.51084 3.14595 4.34824 3.4937 3.49469 4.18918C2.64114 4.88467 1.47364 5.32778 -0.0078125 5.5185Z" fill="#345F72"/>
</svg>
